<?xml version="1.0" standalone="no"?>
<!DOCTYPE svg PUBLIC "-//W3C//DTD SVG 20010904//EN"
 "http://www.w3.org/TR/2001/REC-SVG-20010904/DTD/svg10.dtd">
<svg version="1.0" xmlns="http://www.w3.org/2000/svg"
 width="2000.000000pt" height="2000.000000pt" viewBox="0 0 2000.000000 2000.000000"
 preserveAspectRatio="xMidYMid meet">
<metadata>
Created by potrace 1.14, written by Peter Selinger 2001-2017
</metadata>
<g transform="translate(0.000000,2000.000000) scale(0.100000,-0.100000)"
fill="#000000" stroke="none">
<path d="M0 10000 l0 -10000 2854 0 2853 0 109 101 c910 844 2049 1390 3281
1573 338 50 490 60 903 60 413 0 565 -10 903 -60 1232 -183 2371 -729 3281
-1573 l109 -101 2853 0 2854 0 0 10000 0 10000 -2816 0 -2816 0 -131 -124
c-448 -422 -915 -751 -1447 -1020 -716 -362 -1404 -561 -2225 -643 -245 -25
-890 -24 -1140 0 -802 80 -1506 284 -2215 643 -532 269 -999 598 -1447 1020
l-131 124 -2816 0 -2816 0 0 -10000z m10265 6150 c607 -28 1125 -124 1685
-310 1279 -426 2384 -1263 3152 -2390 581 -852 927 -1818 1035 -2890 22 -221
25 -860 5 -1075 -54 -570 -167 -1088 -348 -1587 -639 -1765 -2064 -3155 -3843
-3748 -1040 -346 -2169 -409 -3241 -179 -1466 314 -2752 1141 -3658 2354 -209
279 -386 566 -551 895 -362 718 -565 1431 -643 2265 -20 215 -17 854 5 1075
131 1292 597 2408 1420 3400 141 170 552 584 717 723 629 529 1298 907 2050
1157 724 241 1463 344 2215 310z"/>
</g>
</svg>
